<svg width="682" height="190" viewBox="0 0 682 190" fill="none" xmlns="http://www.w3.org/2000/svg">
<path d="M0.616001 187V0.375992H88.424C109.587 0.375992 127.336 4.30133 141.672 12.152C156.179 19.832 167.101 30.6693 174.44 44.664C181.949 58.6587 185.704 75.0427 185.704 93.816C185.704 113.784 181.693 130.68 173.672 144.504C165.821 158.328 154.643 168.909 140.136 176.248C125.629 183.416 108.392 187 88.424 187H0.616001ZM38.248 157.304H81.512C103.869 157.304 120.424 151.587 131.176 140.152C142.099 128.717 147.56 113.016 147.56 93.048C147.56 71.2027 141.501 55.2453 129.384 45.176C117.437 34.936 101.48 29.816 81.512 29.816H38.248V157.304ZM281.82 189.56C265.777 189.56 251.697 186.744 239.58 181.112C227.463 175.48 217.991 167.373 211.164 156.792C204.508 146.211 201.18 133.581 201.18 118.904C201.18 104.227 204.508 91.6827 211.164 81.272C217.82 70.6907 227.207 62.584 239.324 56.952C251.441 51.1493 265.607 48.248 281.82 48.248C298.033 48.248 312.199 51.064 324.316 56.696C336.433 62.328 345.82 70.4347 352.476 81.016C359.132 91.4267 362.46 104.056 362.46 118.904C362.46 133.411 359.132 145.955 352.476 156.536C345.82 167.117 336.433 175.309 324.316 181.112C312.369 186.744 298.204 189.56 281.82 189.56ZM281.82 161.4C295.644 161.4 306.481 157.56 314.332 149.88C322.183 142.2 326.108 131.875 326.108 118.904C326.108 105.763 322.183 95.4373 314.332 87.928C306.652 80.248 295.815 76.408 281.82 76.408C267.996 76.408 257.159 80.248 249.308 87.928C241.628 95.608 237.788 105.933 237.788 118.904C237.788 131.875 241.628 142.2 249.308 149.88C257.159 157.56 267.996 161.4 281.82 161.4ZM384.068 187V0.375992H420.42V110.2L437.572 94.84L490.82 50.808H537.156L472.388 104.312L539.46 187H494.148L455.492 138.36L446.02 125.56L420.42 146.296V187H384.068ZM611.312 189.56C588.613 189.56 571.205 185.464 559.088 177.272C546.971 169.08 540.485 157.987 539.632 143.992H575.216C576.24 159.352 588.613 167.032 612.336 167.032C622.747 167.032 630.939 165.667 636.912 162.936C642.885 160.035 645.872 155.512 645.872 149.368C645.872 144.76 644.763 141.347 642.544 139.128C640.325 136.739 636.571 134.947 631.28 133.752C625.989 132.557 618.651 131.533 609.264 130.68C593.733 129.144 581.189 127.011 571.632 124.28C562.075 121.379 555.077 117.283 550.64 111.992C546.373 106.701 544.24 99.6187 544.24 90.744C544.24 77.7733 550.128 67.448 561.904 59.768C573.851 52.088 590.405 48.248 611.568 48.248C631.195 48.248 646.811 52.0027 658.416 59.512C670.021 67.0213 676.421 77.688 677.616 91.512H643.056C642.373 84.344 639.131 79.0533 633.328 75.64C627.525 72.2267 620.187 70.52 611.312 70.52C601.925 70.52 594.245 71.9707 588.272 74.872C582.469 77.6027 579.568 81.9547 579.568 87.928C579.568 93.9013 582.469 97.912 588.272 99.96C594.075 102.008 603.547 103.715 616.688 105.08C632.389 106.445 645.019 108.579 654.576 111.48C664.133 114.211 671.045 118.392 675.312 124.024C679.579 129.485 681.712 137.165 681.712 147.064C681.712 159.864 675.909 170.189 664.304 178.04C652.869 185.72 635.205 189.56 611.312 189.56Z" fill="white"/>
</svg>
