<svg width="962" height="270" viewBox="0 0 962 270" fill="none" xmlns="http://www.w3.org/2000/svg">
<path d="M322.59 213H355.65V148.408H422.761V213H455.744V56.636H422.761V121.152H355.65V56.636H322.59V213Z" fill="white"/>
<path d="M527.234 215.29C556.247 215.29 575.792 201.166 580.373 179.406L550.292 177.421C547.009 186.354 538.61 191.011 527.769 191.011C511.506 191.011 501.199 180.246 501.199 162.762V162.686H581.061V153.753C581.061 113.898 556.934 94.2 525.936 94.2C491.426 94.2 469.056 118.708 469.056 154.898C469.056 192.08 491.121 215.29 527.234 215.29ZM501.199 142.529C501.886 129.168 512.041 118.479 526.471 118.479C540.595 118.479 550.368 128.558 550.444 142.529H501.199Z" fill="white"/>
<path d="M593.686 213H626.211V95.727H593.686V213ZM610.024 80.61C619.721 80.61 627.661 73.204 627.661 64.119C627.661 55.109 619.721 47.703 610.024 47.703C600.404 47.703 592.464 55.109 592.464 64.119C592.464 73.204 600.404 80.61 610.024 80.61Z" fill="white"/>
<path d="M696.499 259.42C730.016 259.42 753.837 244.151 753.837 214.145V95.727H721.541V115.425H720.32C715.968 105.882 706.424 94.2 686.802 94.2C661.072 94.2 639.313 114.204 639.313 154.135C639.313 193.149 660.462 211.32 686.879 211.32C705.584 211.32 716.044 201.929 720.32 192.233H721.694V213.687C721.694 229.797 711.387 236.058 697.262 236.058C682.908 236.058 675.655 229.797 672.983 222.696L642.901 226.743C646.795 245.219 664.89 259.42 696.499 259.42ZM697.186 186.889C681.229 186.889 672.525 174.215 672.525 153.982C672.525 134.055 681.076 120.083 697.186 120.083C712.99 120.083 721.847 133.444 721.847 153.982C721.847 174.673 712.837 186.889 697.186 186.889Z" fill="white"/>
<path d="M803.644 145.202C803.721 130.085 812.959 121.228 826.244 121.228C839.452 121.228 847.24 129.703 847.163 144.133V213H879.69V138.33C879.76 110.844 863.579 94.2 839.147 94.2C821.357 94.2 809.447 102.599 804.102 116.418H802.728V56.636H771.119V213H803.644V145.202Z" fill="white"/>
<path d="M959.06 95.727H937V67.631H904.47V95.727H888.44V120.159H904.47V181.239C904.32 204.22 919.97 215.596 943.56 214.603C951.96 214.298 957.92 212.618 961.2 211.549L956.08 187.347C954.48 187.652 951.05 188.415 947.99 188.415C941.5 188.415 937 185.972 937 176.963V120.159H959.06V95.727Z" fill="white"/>
<path d="M85.646 184.494L88.07 182.461L210.312 181.406L211.071 184.494L211.073 184.489C210.905 185.147 210.65 185.786 210.312 186.387C209.265 188.247 206.982 189.567 202.417 192.209L84.392 260.491C72.638 267.292 66.761 270.692 63.128 269.883C59.985 269.182 57.408 266.943 56.274 263.929C54.963 260.446 57.507 254.151 62.593 241.559L85.646 184.494Z" fill="#7957FF"/>
<path d="M211.071 184.494H85.646L84.906 179.297L122.875 86.484L125.979 84.745L205.446 173.042C205.571 173.18 205.693 173.316 205.813 173.45C209.097 177.101 210.754 178.996 211.161 181.015C211.395 182.175 211.36 183.364 211.071 184.494Z" fill="#18B6AA"/>
<path d="M126.932 9.42701L9.45501 77.052C4.88001 79.685 2.59201 81.002 1.54201 82.861C0.620012 84.491 0.316004 86.399 0.683004 88.235C1.102 90.329 2.86601 92.293 6.39301 96.221L85.646 184.494L125.979 84.746L148.707 28.365C153.764 15.821 156.292 9.55001 154.984 6.07101C153.852 3.06101 151.279 0.823013 148.141 0.119013C144.514 -0.693787 138.654 2.68001 126.932 9.42701Z" fill="#F845C6"/>
</svg>
