<svg width="678" height="230" viewBox="0 0 678 230" fill="none" xmlns="http://www.w3.org/2000/svg">
<path d="M0.616001 187V0.375992H38.248V77.432H149.352V0.375992H186.984V187H149.352V107.384H38.248V187H0.616001ZM217.598 229.752V200.824H235.262C243.966 200.824 250.451 199.459 254.718 196.728C258.985 193.997 262.313 189.901 264.702 184.44L268.286 176.76L204.286 50.808H243.71L277.502 124.024L285.694 142.712H287.23L295.166 124.024L326.91 50.808H365.054L295.678 195.96C289.875 208.248 282.451 216.952 273.406 222.072C264.361 227.192 252.926 229.752 239.102 229.752H217.598ZM429.508 189.56C416.196 189.56 404.42 186.659 394.18 180.856C384.111 175.053 376.26 166.861 370.628 156.28C364.996 145.699 362.18 133.24 362.18 118.904C362.18 104.397 364.996 91.9387 370.628 81.528C376.26 70.9467 384.111 62.84 394.18 57.208C404.42 51.4053 416.196 48.504 429.508 48.504C443.161 48.504 454.425 50.8933 463.3 55.672C472.345 60.4507 478.831 66.5947 482.756 74.104H484.548L485.572 50.808H520.132V187H483.78V162.68H481.988C477.721 170.872 470.895 177.443 461.508 182.392C452.121 187.171 441.455 189.56 429.508 189.56ZM440.516 161.656C449.561 161.656 457.241 159.864 463.556 156.28C470.041 152.696 474.991 148.003 478.404 142.2C481.817 136.227 483.524 129.656 483.524 122.488V114.296C483.524 107.299 481.817 100.984 478.404 95.352C474.991 89.5493 470.041 84.9413 463.556 81.528C457.241 78.1147 449.561 76.408 440.516 76.408C428.057 76.408 417.988 80.0773 410.308 87.416C402.628 94.7547 398.788 105.251 398.788 118.904C398.788 132.216 402.628 142.712 410.308 150.392C417.988 157.901 428.057 161.656 440.516 161.656ZM607.312 189.56C584.613 189.56 567.205 185.464 555.088 177.272C542.971 169.08 536.485 157.987 535.632 143.992H571.216C572.24 159.352 584.613 167.032 608.336 167.032C618.747 167.032 626.939 165.667 632.912 162.936C638.885 160.035 641.872 155.512 641.872 149.368C641.872 144.76 640.763 141.347 638.544 139.128C636.325 136.739 632.571 134.947 627.28 133.752C621.989 132.557 614.651 131.533 605.264 130.68C589.733 129.144 577.189 127.011 567.632 124.28C558.075 121.379 551.077 117.283 546.64 111.992C542.373 106.701 540.24 99.6187 540.24 90.744C540.24 77.7733 546.128 67.448 557.904 59.768C569.851 52.088 586.405 48.248 607.568 48.248C627.195 48.248 642.811 52.0027 654.416 59.512C666.021 67.0213 672.421 77.688 673.616 91.512H639.056C638.373 84.344 635.131 79.0533 629.328 75.64C623.525 72.2267 616.187 70.52 607.312 70.52C597.925 70.52 590.245 71.9707 584.272 74.872C578.469 77.6027 575.568 81.9547 575.568 87.928C575.568 93.9013 578.469 97.912 584.272 99.96C590.075 102.008 599.547 103.715 612.688 105.08C628.389 106.445 641.019 108.579 650.576 111.48C660.133 114.211 667.045 118.392 671.312 124.024C675.579 129.485 677.712 137.165 677.712 147.064C677.712 159.864 671.909 170.189 660.304 178.04C648.869 185.72 631.205 189.56 607.312 189.56Z" fill="white"/>
</svg>
