<svg width="922" height="190" viewBox="0 0 922 190" fill="none" xmlns="http://www.w3.org/2000/svg">
<path d="M64.864 187V30.84H0.352V0.375992H167.52V30.84H102.24V187H64.864ZM187.068 187V0.375992H223.42V76.664H225.468C230.076 67.7893 237.159 60.8773 246.716 55.928C256.273 50.808 266.684 48.248 277.948 48.248C289.724 48.248 300.049 50.296 308.924 54.392C317.799 58.3173 324.711 64.9733 329.66 74.36C334.78 83.576 337.34 96.2053 337.34 112.248V187H300.988V118.648C300.988 104.653 298.257 94.1573 292.796 87.16C287.335 79.992 278.375 76.408 265.916 76.408C252.945 76.408 242.62 80.4187 234.94 88.44C227.26 96.2907 223.42 106.531 223.42 119.16V187H187.068ZM420.174 189.304C408.398 189.304 398.073 187.341 389.198 183.416C380.323 179.32 373.326 172.664 368.206 163.448C363.257 154.061 360.782 141.517 360.782 125.816V50.808H397.39V119.416C397.39 133.069 400.035 143.48 405.326 150.648C410.787 157.816 419.747 161.4 432.206 161.4C445.006 161.4 455.246 157.475 462.926 149.624C470.777 141.603 474.702 131.192 474.702 118.392V50.808H511.31V187H476.238L474.702 161.144H472.91C468.473 169.848 461.475 176.76 451.918 181.88C442.361 186.829 431.779 189.304 420.174 189.304ZM537.568 187V0.375992H573.92V187H537.568ZM601.068 31.608V0.375992H637.42V31.608H601.068ZM601.068 187V50.808H637.42V187H601.068ZM717.048 187C706.125 187 697.507 184.44 691.192 179.32C685.048 174.2 681.976 166.179 681.976 155.256V78.456H655.352V50.808H681.976V14.456L717.816 7.54399V50.808H752.376V78.456H717.816V143.992C717.816 148.6 718.925 151.757 721.144 153.464C723.533 155 726.947 155.768 731.384 155.768H752.376V187H717.048ZM843.564 189.304C827.18 189.304 812.929 186.488 800.812 180.856C788.865 175.224 779.564 167.203 772.908 156.792C766.423 146.381 763.18 133.923 763.18 119.416C763.18 104.739 766.508 92.1093 773.164 81.528C779.82 70.776 789.121 62.584 801.068 56.952C813.015 51.1493 827.009 48.248 843.052 48.248C859.948 48.248 874.284 51.4053 886.06 57.72C898.007 63.864 906.881 72.7387 912.684 84.344C918.657 95.9493 921.047 109.944 919.852 126.328H799.532C799.873 138.275 804.055 147.576 812.076 154.232C820.097 160.888 830.849 164.216 844.332 164.216C854.913 164.216 863.788 162.424 870.956 158.84C878.295 155.085 882.988 150.221 885.036 144.248H919.34C917.975 153.293 913.793 161.229 906.796 168.056C899.969 174.712 891.095 179.917 880.172 183.672C869.249 187.427 857.047 189.304 843.564 189.304ZM842.796 73.592C830.508 73.592 820.524 76.4933 812.844 82.296C805.335 87.928 800.812 95.7787 799.276 105.848H884.012C883.329 95.7787 879.404 87.928 872.236 82.296C865.068 76.4933 855.255 73.592 842.796 73.592Z" fill="#F2F2F2"/>
</svg>
